<?xml version="1.0" standalone="no"?>
<!DOCTYPE svg PUBLIC "-//W3C//DTD SVG 20010904//EN"
 "http://www.w3.org/TR/2001/REC-SVG-20010904/DTD/svg10.dtd">
<svg version="1.0" xmlns="http://www.w3.org/2000/svg"
 width="241.000000pt" height="241.000000pt" viewBox="0 0 241.000000 241.000000"
 preserveAspectRatio="xMidYMid meet">
<metadata>
Created by potrace 1.11, written by Peter Selinger 2001-2013
</metadata>
<g transform="translate(0.000000,241.000000) scale(0.100000,-0.100000)"
fill="#000000" stroke="none">
<path d="M396 2105 c-40 -39 -56 -44 -140 -49 -67 -4 -71 -7 -119 -104 -18
-38 -41 -69 -57 -77 -37 -19 -80 -65 -80 -86 0 -31 32 -91 78 -147 l45 -53
102 7 c97 6 103 5 122 -16 29 -30 82 -202 86 -280 3 -36 12 -94 22 -130 32
-118 17 -167 -79 -259 -48 -47 -61 -75 -71 -156 -3 -27 -18 -70 -33 -95 -71
-122 -83 -166 -61 -229 10 -27 15 -31 47 -31 49 1 78 26 85 74 4 21 15 47 26
57 11 11 23 36 27 56 3 21 12 47 19 58 17 28 137 124 205 164 30 18 78 55 106
83 l52 50 13 -38 c9 -28 13 -97 12 -242 -1 -197 -6 -253 -21 -251 -4 1 -10 0
-14 -1 -16 -5 -28 -8 -43 -9 -9 0 -27 -12 -41 -27 -28 -27 -27 -63 3 -96 19
-21 126 -25 167 -7 31 15 70 87 91 169 9 36 22 81 30 101 13 34 37 152 49 239
3 19 8 55 11 80 3 25 14 52 23 61 9 9 57 26 106 39 48 12 106 28 127 35 l38
14 6 -37 c4 -20 13 -55 22 -77 41 -107 75 -234 74 -278 -1 -61 -26 -114 -62
-133 -16 -8 -31 -14 -34 -14 -3 0 -8 -1 -12 -1 -5 -1 -15 -1 -25 0 -21 2 -48
-36 -48 -70 0 -50 62 -80 125 -59 41 14 158 124 204 191 30 45 31 51 35 184 4
107 9 143 23 167 10 17 23 33 30 35 6 2 29 -22 51 -54 36 -53 99 -119 162
-168 14 -11 36 -35 49 -53 20 -29 23 -42 20 -111 -4 -82 -23 -121 -58 -121
-20 -1 -59 -33 -61 -51 -6 -41 2 -58 34 -73 44 -21 77 -20 151 3 59 18 60 19
84 77 19 47 23 76 23 142 -1 45 -6 91 -12 102 -8 14 -8 26 0 40 13 24 14 24
71 7 53 -15 127 -15 167 2 31 13 49 43 58 96 9 61 -42 143 -89 141 -18 -1 -24
-10 -33 -54 -12 -54 -37 -93 -57 -89 -12 2 -34 28 -54 64 -7 12 -15 77 -18
145 -11 248 -25 383 -46 461 -14 51 -64 117 -89 117 -10 0 -25 7 -33 15 -8 8
-17 11 -21 8 -3 -3 -14 1 -23 9 -31 27 -62 39 -115 44 -29 3 -59 9 -67 14 -8
4 -25 4 -38 -1 -13 -5 -23 -6 -23 -3 0 4 -6 1 -13 -5 -8 -6 -17 -8 -20 -4 -8
7 -85 5 -132 -4 -50 -9 -95 -13 -198 -18 -55 -3 -103 -8 -108 -11 -5 -3 -9 0
-9 6 0 6 -4 8 -10 5 -9 -6 -129 13 -160 25 -3 1 -9 2 -14 1 -5 -1 -12 2 -15 7
-7 10 -93 66 -101 65 -3 0 -11 8 -18 18 -7 11 -21 19 -31 19 -10 0 -28 9 -41
20 -13 11 -29 20 -37 20 -21 0 -123 73 -164 117 -19 21 -47 47 -60 58 -37 30
-65 75 -73 119 -16 84 -44 96 -100 41z"/>
</g>
</svg>
